<svg width="19" height="19" viewBox="0 0 19 19" fill="none" xmlns="http://www.w3.org/2000/svg">
<path d="M0 1.04536C0 0.742548 0.244604 0.49707 0.546338 0.49707H8.19507C8.4968 0.49707 8.74141 0.742548 8.74141 1.04536V9.97464C8.74141 10.2775 8.4968 10.5229 8.19507 10.5229H0.546338C0.244604 10.5229 0 10.2775 0 9.97464V1.04536Z" fill="#A8D0FF"/>
<path d="M0 12.0346C0 11.7318 0.244604 11.4863 0.546338 11.4863H8.19507C8.4968 11.4863 8.74141 11.7318 8.74141 12.0346V17.9488C8.74141 18.2516 8.4968 18.4971 8.19507 18.4971H0.546338C0.244604 18.4971 0 18.2516 0 17.9488V12.0346Z" fill="#A8D0FF"/>
<path d="M9.99219 9.24055C9.99219 8.93774 10.2368 8.69226 10.5385 8.69226H18.1873C18.489 8.69226 18.7336 8.93774 18.7336 9.24055V17.9488C18.7336 18.2516 18.489 18.4971 18.1873 18.4971H10.5385C10.2368 18.4971 9.99219 18.2516 9.99219 17.9488V9.24055Z" fill="#A8D0FF"/>
<path d="M9.99219 1.04536C9.99219 0.742548 10.2368 0.49707 10.5385 0.49707H18.1873C18.489 0.49707 18.7336 0.742548 18.7336 1.04536V6.89069C18.7336 7.19351 18.489 7.43898 18.1873 7.43898H10.5385C10.2368 7.43898 9.99219 7.19351 9.99219 6.89069V1.04536Z" fill="#A8D0FF"/>
</svg>
