<svg width="21" height="20" viewBox="0 0 21 20" fill="none" xmlns="http://www.w3.org/2000/svg">
<path fill-rule="evenodd" clip-rule="evenodd" d="M18.5456 9.7417C17.7406 13.4414 13.824 16.2486 9.11375 16.2486C8.43428 16.2486 7.77132 16.1902 7.13184 16.0791C8.42983 17.205 10.33 17.9153 12.4471 17.9153C13.6118 17.9153 14.7108 17.7003 15.6801 17.3194C16.126 17.1442 17.5574 17.5995 18.5434 17.9554C18.9405 18.0987 19.3511 17.723 19.2451 17.3144C18.9998 16.3686 18.7158 15.0534 18.9243 14.6942C19.3139 14.0231 19.5304 13.2802 19.5304 12.4986C19.5304 11.4919 19.1713 10.5493 18.5456 9.7417Z" fill="#FFC542"/>
<path d="M17.0296 8.33325C17.0296 11.785 13.4852 14.5833 9.11296 14.5833C7.92214 14.5833 6.79274 14.3757 5.77962 14.0039C5.26683 13.8157 3.40234 14.3206 2.21524 14.6784C1.80904 14.8009 1.42228 14.3962 1.55641 13.9937C1.88981 12.9933 2.29671 11.5487 2.02962 11.1275C1.49637 10.2867 1.19629 9.33762 1.19629 8.33325C1.19629 4.88147 4.7407 2.08325 9.11296 2.08325C13.4852 2.08325 17.0296 4.88147 17.0296 8.33325Z" fill="#FFC542"/>
</svg>
