<svg width="18" height="18" viewBox="0 0 18 18" fill="none" xmlns="http://www.w3.org/2000/svg">
<g clip-path="url(#clip0)">
<path d="M11.8959 10.6311C11.8086 10.6074 11.7216 10.5817 11.63 10.5817C11.0502 10.5817 10.5791 11.0544 10.5791 11.6364C10.5791 12.2183 11.0502 12.691 11.63 12.691C11.7216 12.691 11.8086 12.6653 11.8959 12.6416C11.7316 12.3419 11.63 12.002 11.63 11.6364C11.63 11.2707 11.7316 10.9308 11.8959 10.6311Z" fill="#A8D0FF"/>
<path d="M0 7.47229V14.2731C0 15.1454 0.707139 15.8551 1.5764 15.8551H16.3595C17.2288 15.8551 17.9359 15.1454 17.9359 14.2731V7.47229H0ZM2.62734 9.52698H5.8502C6.14064 9.52698 6.37567 9.76284 6.37567 10.0543C6.37567 10.3458 6.14064 10.5817 5.8502 10.5817H2.62734C2.33689 10.5817 2.10187 10.3458 2.10187 10.0543C2.10187 9.76284 2.33689 9.52698 2.62734 9.52698ZM7.95207 12.691H2.62734C2.33689 12.691 2.10187 12.4552 2.10187 12.1637C2.10187 11.8722 2.33689 11.6364 2.62734 11.6364H7.95207C8.24251 11.6364 8.47754 11.8722 8.47754 12.1637C8.47754 12.4552 8.24251 12.691 7.95207 12.691ZM13.7322 13.7457C13.3504 13.7457 12.9969 13.6355 12.6879 13.4553C12.3688 13.6427 12.0055 13.7457 11.6303 13.7457C10.4716 13.7457 9.52847 12.7992 9.52847 11.6364C9.52847 10.4735 10.4716 9.52698 11.6303 9.52698C12.0055 9.52698 12.3688 9.62999 12.6879 9.81638C12.9969 9.63719 13.3504 9.52698 13.7322 9.52698C14.8909 9.52698 15.8341 10.4735 15.8341 11.6364C15.8341 12.7992 14.8909 13.7457 13.7322 13.7457Z" fill="#A8D0FF"/>
<path d="M16.3595 2.14417H1.5764C0.707139 2.14417 0 2.85383 0 3.7262V5.25354H17.9359V3.7262C17.9359 2.85383 17.2288 2.14417 16.3595 2.14417Z" fill="#A8D0FF"/>
<path d="M13.7326 10.5817C13.1527 10.5817 12.6816 11.0544 12.6816 11.6364C12.6816 12.2183 13.1527 12.691 13.7326 12.691C14.3124 12.691 14.7835 12.2183 14.7835 11.6364C14.7835 11.0544 14.3124 10.5817 13.7326 10.5817Z" fill="#A8D0FF"/>
</g>
<defs>
<clipPath id="clip0">
<rect width="17.9359" height="18" fill="white" transform="translate(0 -0.000366211)"/>
</clipPath>
</defs>
</svg>
