<svg width="17" height="17" viewBox="0 0 17 17" fill="none" xmlns="http://www.w3.org/2000/svg">
<g clip-path="url(#clip0)">
<path fill-rule="evenodd" clip-rule="evenodd" d="M12.7503 2.12516C11.9679 2.12516 11.3337 2.75943 11.3337 3.54183C11.3337 4.32423 11.9679 4.9585 12.7503 4.9585C13.5327 4.9585 14.167 4.32423 14.167 3.54183C14.167 2.75943 13.5327 2.12516 12.7503 2.12516ZM9.91699 3.54183C9.91699 1.97702 11.1855 0.708496 12.7503 0.708496C14.3151 0.708496 15.5837 1.97702 15.5837 3.54183C15.5837 5.10664 14.3151 6.37516 12.7503 6.37516C11.1855 6.37516 9.91699 5.10664 9.91699 3.54183Z" fill="#A8D0FF"/>
<path fill-rule="evenodd" clip-rule="evenodd" d="M4.25033 7.08341C3.46792 7.08341 2.83366 7.71768 2.83366 8.50008C2.83366 9.28249 3.46792 9.91675 4.25033 9.91675C5.03273 9.91675 5.66699 9.28249 5.66699 8.50008C5.66699 7.71768 5.03273 7.08341 4.25033 7.08341ZM1.41699 8.50008C1.41699 6.93527 2.68552 5.66675 4.25033 5.66675C5.81513 5.66675 7.08366 6.93527 7.08366 8.50008C7.08366 10.0649 5.81513 11.3334 4.25033 11.3334C2.68552 11.3334 1.41699 10.0649 1.41699 8.50008Z" fill="#A8D0FF"/>
<path fill-rule="evenodd" clip-rule="evenodd" d="M12.7503 12.0418C11.9679 12.0418 11.3337 12.6761 11.3337 13.4585C11.3337 14.2409 11.9679 14.8751 12.7503 14.8751C13.5327 14.8751 14.167 14.2409 14.167 13.4585C14.167 12.6761 13.5327 12.0418 12.7503 12.0418ZM9.91699 13.4585C9.91699 11.8936 11.1855 10.6251 12.7503 10.6251C14.3151 10.6251 15.5837 11.8936 15.5837 13.4585C15.5837 15.0233 14.3151 16.2918 12.7503 16.2918C11.1855 16.2918 9.91699 15.0233 9.91699 13.4585Z" fill="#A8D0FF"/>
<path fill-rule="evenodd" clip-rule="evenodd" d="M5.47242 9.21302C5.66938 8.87502 6.10305 8.76069 6.44106 8.95765L11.279 11.7768C11.617 11.9738 11.7313 12.4074 11.5343 12.7455C11.3374 13.0835 10.9037 13.1978 10.5657 13.0008L5.7278 10.1817C5.38979 9.9847 5.27546 9.55103 5.47242 9.21302Z" fill="#A8D0FF"/>
<path fill-rule="evenodd" clip-rule="evenodd" d="M11.527 4.25438C11.7242 4.59226 11.6102 5.026 11.2723 5.22318L6.44145 8.04235C6.10357 8.23952 5.66982 8.12546 5.47265 7.78759C5.27547 7.44971 5.38953 7.01597 5.7274 6.81879L10.5582 3.99962C10.8961 3.80245 11.3299 3.91651 11.527 4.25438Z" fill="#A8D0FF"/>
</g>
<defs>
<clipPath id="clip0">
<rect width="17" height="17" fill="white" transform="translate(0 0.00012207)"/>
</clipPath>
</defs>
</svg>
