<svg width="14" height="18" viewBox="0 0 14 18" fill="none" xmlns="http://www.w3.org/2000/svg">
<path fill-rule="evenodd" clip-rule="evenodd" d="M8.959 2.49902C8.95295 3.59581 8.06336 4.48068 6.97047 4.47701C5.87758 4.47334 4.99392 3.58251 4.99519 2.48571C4.99646 1.38891 5.88219 0.500143 6.97508 0.499023C8.07144 0.505075 8.95702 1.39874 8.95701 2.49902H8.959ZM3.22547 6.97902L3.62405 11.307C3.66129 11.6459 3.94213 11.9051 4.2817 11.914L4.58064 11.925C4.81452 11.9309 5.00626 12.113 5.02505 12.347L5.38476 16.892C5.41893 17.2404 5.71355 17.5043 6.06234 17.499H7.90476C8.25409 17.5048 8.54912 17.2401 8.58234 16.891L8.94007 12.343C8.96033 12.1104 9.15181 11.9303 9.38448 11.925L9.68341 11.913C10.0185 11.9043 10.2952 11.6476 10.3301 11.313L10.7287 6.97602C10.4473 6.20302 9.7759 5.63978 8.96797 5.49902H4.9822C4.17416 5.6397 3.50349 6.20472 3.22547 6.97902ZM11.6633 6.97906L11.2598 11.3991C11.1916 12.0443 10.7384 12.5828 10.1159 12.7581C9.95876 12.8075 9.84301 12.9419 9.81694 13.1051L9.59274 15.5261C9.58357 15.6652 9.63267 15.8018 9.72821 15.903C9.82375 16.0042 9.95705 16.0608 10.0959 16.0591H11.475C11.7831 16.0662 12.0442 15.833 12.0729 15.5251L12.3868 11.5351C12.4036 11.3302 12.5725 11.1715 12.7774 11.1681L13.0364 11.1581C13.3296 11.1498 13.5717 10.9256 13.6034 10.6331L13.9542 6.83306C13.9449 6.31703 13.5207 5.90614 13.0066 5.91506H11.8995C11.7863 5.91197 11.6787 5.96437 11.6111 6.05551C11.5435 6.14665 11.5243 6.26513 11.5597 6.37306C11.6271 6.57064 11.6608 6.77822 11.6594 6.98706L11.6633 6.97906ZM10.3779 1.15903C10.2605 1.17316 10.1561 1.24075 10.0948 1.34229C10.0335 1.44382 10.0222 1.56801 10.0641 1.67903C10.4326 2.59666 10.3228 3.6381 9.77111 4.45803C9.70788 4.55879 9.69509 4.68337 9.73652 4.79496C9.77794 4.90654 9.86884 4.99235 9.98235 5.02703C10.7748 5.3425 11.6793 5.12278 12.2402 4.47857C12.8012 3.83435 12.8969 2.90536 12.4792 2.15958C12.0615 1.41379 11.2209 1.01297 10.3809 1.15903H10.3779ZM2.39146 6.36502C2.42686 6.25709 2.40769 6.13862 2.34008 6.04747C2.27246 5.95633 2.16486 5.90393 2.05167 5.90702H0.947616C0.700604 5.90247 0.461925 5.99668 0.284175 6.16887C0.106425 6.34107 0.00419061 6.57712 0 6.82502L0.350747 10.625C0.382551 10.918 0.625188 11.1423 0.918719 11.15L1.17779 11.16C1.38224 11.1639 1.55057 11.3225 1.5674 11.527L1.88128 15.517C1.90997 15.8249 2.17107 16.0581 2.47915 16.051H3.85722C3.99612 16.0527 4.12942 15.9961 4.22496 15.895C4.3205 15.7938 4.36961 15.6571 4.36043 15.518L4.13324 13.099C4.10674 12.9361 3.99116 12.8019 3.83431 12.752C3.21361 12.5775 2.76085 12.042 2.69039 11.399L2.29182 6.98202C2.29037 6.77319 2.32406 6.56561 2.39146 6.36802V6.36502ZM1.22461 2.93906C1.17224 3.63551 1.47558 4.31105 2.03015 4.73301C2.58472 5.15497 3.31475 5.2657 3.96881 5.02706C4.08232 4.99238 4.17322 4.90657 4.21465 4.79499C4.25607 4.68341 4.24328 4.55882 4.18006 4.45806C3.62833 3.63813 3.51855 2.5967 3.8871 1.67906C3.92899 1.5682 3.91779 1.44417 3.85672 1.34267C3.79565 1.24117 3.69149 1.17347 3.57422 1.15906C3.02622 1.07453 2.46744 1.21596 2.02493 1.5512C1.58242 1.88644 1.29377 2.38699 1.22461 2.93906Z" fill="#A8D0FF"/>
</svg>
