<svg width="14" height="14" viewBox="0 0 14 14" fill="none" xmlns="http://www.w3.org/2000/svg">
<path d="M13.3477 0.815118C13.243 0.620118 13.0338 0.500122 12.8245 0.500122H0.852285C0.628086 0.500122 0.43378 0.620118 0.329153 0.815118C0.224527 1.01012 0.26937 1.25011 0.388943 1.43011L5.05228 8.30012V12.8451C5.05228 13.3101 5.36617 13.7001 5.84446 13.7001H7.84731C8.31065 13.7001 8.63947 13.3251 8.63947 12.8451V8.30012L13.3028 1.43011C13.4075 1.25011 13.4523 1.01012 13.3477 0.815118ZM9.74552 4.58011C9.73058 4.58011 9.10283 4.86512 8.07151 4.85012C7.69784 4.85012 7.41386 4.77513 7.09998 4.68513C6.74126 4.59513 6.32274 4.49012 5.72488 4.47512C5.05228 4.47512 4.45442 4.64012 4.05087 4.79012L1.95834 1.68513H11.6886L9.74552 4.58011ZM8.51991 3.59012C8.41528 3.48512 8.34054 3.32013 8.34054 3.17013C8.34054 3.00513 8.40033 2.85512 8.51991 2.75012C8.62453 2.64512 8.78894 2.57013 8.9384 2.57013C9.10281 2.57013 9.25229 2.63012 9.35691 2.75012C9.46154 2.87012 9.53627 3.02013 9.53627 3.17013C9.53627 3.33513 9.47649 3.48512 9.35691 3.59012C9.23734 3.69512 9.08787 3.77013 8.9384 3.77013C8.78894 3.77013 8.62453 3.69512 8.51991 3.59012Z" fill="white"/>
</svg>
