<svg width="23" height="24" viewBox="0 0 23 24" fill="none" xmlns="http://www.w3.org/2000/svg">
<g clip-path="url(#clip0)">
<path d="M7.74529 4.44788H7.74452C7.59437 4.44973 7.47379 4.57213 7.47363 4.72267C7.47317 4.8732 7.5936 4.99591 7.74344 4.99823H7.74452C7.89544 4.99823 8.01802 4.87552 8.01848 4.7239C8.0191 4.57213 7.89667 4.44849 7.74529 4.44788Z" fill="#A8D0FF"/>
<path d="M21.1875 14.439L21.1954 16.6005C21.7607 16.5586 22.1975 16.0849 22.1953 15.516C22.1931 14.9471 21.753 14.4768 21.1875 14.439Z" fill="#A8D0FF"/>
<path d="M20.5076 16.9519V16.9518L20.4971 14.093V14.0922L20.4891 11.9061L15.8096 13.8047L15.8228 17.4096L20.5162 19.2734L20.5076 16.9524V16.9519Z" fill="#A8D0FF"/>
<path d="M4.9648 4.43921H4.96403C4.81265 4.43905 4.68961 4.56207 4.68945 4.71399C4.68915 4.86576 4.81157 4.98909 4.9631 4.9894H4.96403C5.1151 4.9894 5.23752 4.86669 5.23799 4.71523C5.2386 4.56316 5.11618 4.43983 4.9648 4.43921Z" fill="#A8D0FF"/>
<path d="M2.18489 4.43066H2.18397C2.03413 4.43236 1.91324 4.55476 1.91309 4.70545C1.91278 4.85582 2.03336 4.97869 2.1832 4.9807H2.18397C2.33504 4.9807 2.45747 4.85814 2.45809 4.70653C2.4587 4.55461 2.33627 4.43113 2.18489 4.43066Z" fill="#A8D0FF"/>
<path d="M16.7667 7.05469H0.709961V15.4706C0.710885 16.3712 1.43806 17.1008 2.33541 17.1019H11.4669C11.4014 16.9362 11.3675 16.7594 11.3671 16.5811L11.3601 14.666C11.3571 13.8788 11.9906 13.2383 12.7748 13.2357L15.3964 13.2258L16.7669 12.6697L16.7667 7.05469Z" fill="#A8D0FF"/>
<path d="M14.3567 17.9951L12.8945 18.0005L13.511 20.2129C13.5966 20.518 13.8736 20.7291 14.1897 20.7297H14.1923C14.4122 20.7289 14.6192 20.6249 14.7517 20.4489C14.8845 20.2728 14.9276 20.0446 14.8683 19.8319L14.3567 17.9951Z" fill="#A8D0FF"/>
<path d="M12.7766 13.9278C12.3735 13.9297 12.0479 14.2587 12.0488 14.6635L12.0559 16.5786C12.0573 16.9824 12.3838 17.309 12.7862 17.3091H12.7889L14.6274 17.3025H14.6281L15.1322 17.3005L15.1197 13.9193L12.7766 13.9278Z" fill="#A8D0FF"/>
<path d="M16.7667 4.66507C16.7656 3.76467 16.0384 3.03474 15.1413 3.03381H2.33541C1.43806 3.03474 0.710885 3.76467 0.709961 4.66507V6.36262H16.7667V4.66507ZM2.18434 5.67272H2.18141C1.65181 5.66824 1.22508 5.23581 1.22601 4.70417C1.22678 4.17268 1.65458 3.74149 2.18434 3.73855H2.18742C2.71702 3.74303 3.14359 4.17577 3.14282 4.7071C3.14205 5.23875 2.71393 5.66978 2.18434 5.67272ZM4.96446 5.68137H4.96123C4.42901 5.6806 3.99828 5.24694 3.99905 4.71298C3.99997 4.17886 4.43209 3.74659 4.96431 3.74736H4.96708C5.49945 3.74813 5.93033 4.18179 5.92926 4.71576C5.92849 5.25003 5.49637 5.68245 4.96431 5.68137H4.96446ZM7.74443 5.69034H7.74135C7.2119 5.6857 6.78502 5.25312 6.78579 4.72163C6.78656 4.19029 7.21468 3.75895 7.74443 3.75602H7.74751C8.27695 3.76065 8.70368 4.19308 8.70291 4.72472C8.70199 5.25606 8.27403 5.6874 7.74443 5.69034Z" fill="#A8D0FF"/>
</g>
<defs>
<clipPath id="clip0">
<rect width="22.9181" height="23" fill="white" transform="translate(0 0.499146)"/>
</clipPath>
</defs>
</svg>
