<svg width="18" height="19" viewBox="0 0 18 19" fill="none" xmlns="http://www.w3.org/2000/svg">
<g clip-path="url(#clip0)">
<path d="M17.8859 15.962C17.8851 15.9597 17.8844 15.9574 17.8836 15.955L17.1712 13.7826V8.46262C17.1712 7.5903 16.464 6.88062 15.5948 6.88062H10.9931V9.46913C10.9931 10.923 9.81451 12.1058 8.36582 12.1058H7.99316V14.65C7.99316 15.5223 8.70033 16.232 9.56954 16.232H14.9175L16.294 17.1513C16.4749 17.2742 16.6796 17.3354 16.8838 17.3354C17.1027 17.3354 17.3212 17.265 17.5094 17.1248C17.874 16.8533 18.0218 16.3969 17.8859 15.962ZM14.3091 14.0886C14.0376 14.1915 13.7344 14.0539 13.632 13.7814L13.4031 13.173H11.8036L11.5721 13.7829C11.4923 13.9933 11.2927 14.1227 11.0809 14.1227C11.0188 14.1227 10.9556 14.1116 10.894 14.0881C10.6228 13.9844 10.4867 13.6797 10.59 13.4076L12.037 9.59464C12.0385 9.59063 12.0401 9.58662 12.0417 9.58265C12.1362 9.35076 12.3586 9.20075 12.6083 9.2005C12.8593 9.1992 13.0806 9.34981 13.1756 9.58156C13.1776 9.58634 13.1794 9.59112 13.1812 9.59597L14.6151 13.409C14.7176 13.6815 14.5806 13.9858 14.3091 14.0886Z" fill="#A8D0FF"/>
<path d="M12.2041 12.1185H13.0068L12.6073 11.056L12.2041 12.1185Z" fill="#A8D0FF"/>
<path d="M8.36607 1.66467H2.3408C1.47159 1.66467 0.764426 2.37436 0.764426 3.24668V8.60191L0.0519735 10.7745C0.0512028 10.7769 0.0504671 10.7793 0.0497315 10.7816C-0.0860821 11.2164 0.061747 11.6727 0.426345 11.9442C0.614565 12.0843 0.833016 12.1547 1.05192 12.1547C1.25608 12.1547 1.46062 12.0935 1.64145 11.9706L3.01808 11.0513H8.36603C9.23524 11.0513 9.94241 10.3416 9.94241 9.46927V3.24671C9.94244 2.37436 9.23528 1.66467 8.36607 1.66467ZM7.54656 8.7007C7.44395 8.80364 7.30947 8.85514 7.17502 8.85514C7.04054 8.85514 6.9061 8.80367 6.80349 8.70066L6.57341 8.46973C6.18818 8.72288 5.72833 8.87071 5.23447 8.87071C3.88288 8.87071 2.78327 7.76718 2.78327 6.41076C2.78327 5.05435 3.88288 3.95081 5.23447 3.95081C6.58606 3.95081 7.68567 5.05435 7.68567 6.41076C7.68567 6.8906 7.54758 7.33842 7.30989 7.71729L7.54663 7.95487C7.75177 8.16088 7.75177 8.49476 7.54656 8.7007Z" fill="#A8D0FF"/>
<path d="M5.23427 5.00549C4.46215 5.00549 3.83398 5.63591 3.83398 6.41077C3.83398 7.18564 4.46215 7.81605 5.23427 7.81605C5.43608 7.81605 5.62791 7.77263 5.80141 7.69515L5.57119 7.46411C5.36598 7.25816 5.36598 6.92429 5.57119 6.71835C5.7764 6.51241 6.10909 6.51241 6.3143 6.71835L6.53226 6.93709C6.59801 6.77442 6.63455 6.59682 6.63455 6.41077C6.63455 5.63587 6.00638 5.00549 5.23427 5.00549Z" fill="#A8D0FF"/>
</g>
<defs>
<clipPath id="clip0">
<rect width="17.9359" height="18" fill="white" transform="translate(0 0.500122)"/>
</clipPath>
</defs>
</svg>
