<svg width="18" height="19" viewBox="0 0 18 19" fill="none" xmlns="http://www.w3.org/2000/svg">
<g clip-path="url(#clip0)">
<path d="M8.44301 2.42303H8.44312C8.55024 2.41572 8.65782 2.41076 8.76576 2.40784C8.77917 2.40746 8.79259 2.40707 8.80604 2.40675C8.79259 2.40704 8.77917 2.40746 8.76576 2.40784C8.83302 2.40602 8.90034 2.40479 8.96785 2.40479C9.03585 2.40479 9.10363 2.40602 9.17131 2.40788C9.15744 2.40749 9.14353 2.40707 9.12966 2.40679C9.14357 2.40711 9.15744 2.40753 9.17131 2.40788C9.27886 2.41083 9.38609 2.41575 9.49283 2.42307C9.493 2.42307 9.49318 2.42307 9.49332 2.4231V1.52588C9.49332 1.23464 9.25805 0.998535 8.96785 0.998535C8.67765 0.998535 8.44238 1.23464 8.44238 1.52588V2.42307C8.44263 2.42307 8.44287 2.42303 8.44312 2.42303C8.44308 2.42303 8.44305 2.42303 8.44301 2.42303Z" fill="#A8D0FF"/>
<path d="M16.517 9.47839H16.5166C16.517 9.48441 16.5176 9.49038 16.5179 9.49639C16.5176 9.49038 16.5174 9.48437 16.517 9.47839Z" fill="#A8D0FF"/>
<path d="M16.5166 10.5185H16.517C16.5174 10.5125 16.5176 10.5065 16.5179 10.5005C16.5176 10.5065 16.517 10.5125 16.5166 10.5185Z" fill="#A8D0FF"/>
<path d="M1.41892 10.5185H1.4193C1.41888 10.5125 1.41836 10.5065 1.41797 10.5005C1.41832 10.5065 1.4185 10.5125 1.41892 10.5185Z" fill="#A8D0FF"/>
<path d="M1.41806 10.5005C1.41396 10.437 1.41056 10.3733 1.40794 10.3094C1.41018 10.3657 1.41316 10.4218 1.41659 10.4779C1.40678 10.3189 1.40125 10.1592 1.40125 9.9985C1.40125 9.83787 1.40675 9.67808 1.41662 9.51914C1.41316 9.57518 1.41021 9.63129 1.40797 9.6875C1.4106 9.62366 1.414 9.55996 1.4181 9.49639C1.41796 9.49878 1.41771 9.50114 1.41757 9.50353C1.4181 9.49516 1.41848 9.48676 1.41904 9.47839H0.518251C0.232011 9.47843 0 9.71127 0 9.9985C0 10.2857 0.232011 10.5186 0.518251 10.5186H1.41904C1.41848 10.5102 1.4181 10.5018 1.41757 10.4934C1.41768 10.4958 1.41792 10.4981 1.41806 10.5005Z" fill="#A8D0FF"/>
<path d="M1.4193 9.47839H1.41892C1.41853 9.48437 1.41836 9.49042 1.41797 9.49639C1.41832 9.49038 1.41888 9.48437 1.4193 9.47839Z" fill="#A8D0FF"/>
<path d="M10.1936 10.6967H7.74144C6.87221 10.6967 6.16504 11.3679 6.16504 12.193V13.5092H11.77V12.193C11.77 11.3679 11.0628 10.6967 10.1936 10.6967Z" fill="#A8D0FF"/>
<path d="M15.1715 9.99856C15.1715 9.71134 15.4036 9.4785 15.6898 9.4785H16.5161C16.3934 7.64598 15.6243 5.93995 14.318 4.62897C13.0134 3.31972 11.3163 2.54779 9.49296 2.4231V3.28372C9.49296 3.57496 9.25769 3.81106 8.96749 3.81106C8.67729 3.81106 8.44202 3.57496 8.44202 3.28372V2.4231C6.61872 2.54779 4.9216 3.31972 3.61701 4.62897C2.31073 5.93995 1.54162 7.64598 1.41895 9.4785H2.24522C2.53143 9.4785 2.76348 9.71134 2.76348 9.99856C2.76348 10.2858 2.53146 10.5186 2.24522 10.5186H1.41895C1.54162 12.3512 2.31073 14.0572 3.61701 15.3682C4.9216 16.6774 6.61876 17.4493 8.44202 17.574V16.7134C8.44202 16.4222 8.67729 16.1861 8.96749 16.1861C9.25769 16.1861 9.49296 16.4222 9.49296 16.7134V17.574C11.3163 17.4493 13.0134 16.6774 14.318 15.3682C15.6243 14.0572 16.3934 12.3512 16.516 10.5186H15.6898C15.4036 10.5186 15.1715 10.2858 15.1715 9.99856ZM8.96749 4.77217C10.0299 4.77217 10.8942 5.63958 10.8942 6.70576C10.8942 7.77194 10.0299 8.63935 8.96749 8.63935C7.9051 8.63935 7.04078 7.77194 7.04078 6.70576C7.04078 5.63958 7.9051 4.77217 8.96749 4.77217ZM12.8209 13.6258C12.8209 14.1431 12.3938 14.5639 11.8688 14.5639H6.06618C5.54117 14.5639 5.11407 14.1431 5.11407 13.6258V12.193C5.11407 10.7864 6.29269 9.64201 7.7414 9.64201H10.1936C11.6423 9.64201 12.8209 10.7864 12.8209 12.193V13.6258Z" fill="#A8D0FF"/>
<path d="M8.96758 7.58459C9.45125 7.58459 9.84335 7.19109 9.84335 6.70569C9.84335 6.22028 9.45125 5.82678 8.96758 5.82678C8.4839 5.82678 8.0918 6.22028 8.0918 6.70569C8.0918 7.19109 8.4839 7.58459 8.96758 7.58459Z" fill="#A8D0FF"/>
<path d="M9.17131 17.5892C9.10363 17.591 9.03585 17.5923 8.96785 17.5923C8.90034 17.5923 8.83302 17.591 8.76576 17.5892C8.65782 17.5863 8.55024 17.5813 8.44312 17.574C8.44287 17.574 8.44263 17.574 8.44238 17.574V18.4712C8.44238 18.7624 8.67765 18.9985 8.96785 18.9985C9.25805 18.9985 9.49332 18.7624 9.49332 18.4712V17.574C9.49314 17.574 9.49297 17.574 9.49283 17.574C9.38605 17.5813 9.27886 17.5862 9.17131 17.5892Z" fill="#A8D0FF"/>
<path d="M17.4174 9.47839H16.5166C16.5172 9.48676 16.5175 9.49516 16.5181 9.50353C16.5179 9.50114 16.5177 9.49878 16.5175 9.49639C16.5216 9.55996 16.525 9.62366 16.5277 9.6875C16.5254 9.63125 16.5225 9.57514 16.519 9.51914C16.5289 9.67805 16.5344 9.83783 16.5344 9.99846C16.5344 10.1591 16.5289 10.3189 16.519 10.4779C16.5225 10.4218 16.5254 10.3657 16.5277 10.3094C16.525 10.3733 16.5216 10.4369 16.5175 10.5005C16.5177 10.4981 16.5179 10.4958 16.5181 10.4934C16.5175 10.5018 16.5172 10.5102 16.5166 10.5186H17.4174C17.7036 10.5186 17.9356 10.2857 17.9356 9.9985C17.9356 9.71127 17.7036 9.47839 17.4174 9.47839Z" fill="#A8D0FF"/>
</g>
<defs>
<clipPath id="clip0">
<rect width="17.9359" height="18" fill="white" transform="translate(0 0.998535)"/>
</clipPath>
</defs>
</svg>
