<svg width="16" height="17" viewBox="0 0 16 17" fill="none" xmlns="http://www.w3.org/2000/svg">
<path fill-rule="evenodd" clip-rule="evenodd" d="M8.38705 13.1996H12.9438C13.7383 13.2023 14.5012 12.8874 15.064 12.3245C15.6268 11.7616 15.9431 10.997 15.9431 10.1996V3.1996C15.9431 2.40222 15.6268 1.63764 15.064 1.07474C14.5012 0.51184 13.7383 0.196944 12.9438 0.199602H2.99929C2.20475 0.196944 1.44184 0.51184 0.879073 1.07474C0.316309 1.63764 -4.41412e-06 2.40222 0 3.1996V10.1996C-4.41412e-06 10.997 0.316309 11.7616 0.879073 12.3245C1.44184 12.8874 2.20475 13.2023 2.99929 13.1996H3.98577V15.1906C3.98337 15.4574 4.0873 15.714 4.27443 15.9035C4.46156 16.093 4.71637 16.1996 4.98221 16.1996H3.98577C4.62709 16.1682 5.24751 15.9606 5.77936 15.5996L8.17082 13.7996C8.4568 13.5846 8.52256 13.3606 8.38705 13.1996ZM10.8971 7.1996H5.04597C4.78294 7.41805 4.39601 7.39366 4.16228 7.1439C3.92856 6.89414 3.92856 6.50507 4.16228 6.25531C4.39601 6.00555 4.78294 5.98116 5.04597 6.1996H10.8981C11.1611 5.98116 11.548 6.00555 11.7818 6.25531C12.0155 6.50507 12.0155 6.89414 11.7818 7.1439C11.548 7.39366 11.1611 7.41805 10.8981 7.1996H10.8971ZM9.16727 9.19959H4.78293C4.55 9.31328 4.26966 9.24983 4.10791 9.04681C3.94615 8.84379 3.94615 8.55539 4.10791 8.35237C4.26966 8.14935 4.55 8.0859 4.78293 8.19959H9.16727C9.4002 8.0859 9.68053 8.14935 9.84229 8.35237C10.004 8.55539 10.004 8.84379 9.84229 9.04681C9.68053 9.24983 9.4002 9.31328 9.16727 9.19959ZM11.1342 5.19959H4.80685C4.57039 5.32344 4.27976 5.26343 4.11123 5.05596C3.9427 4.84848 3.9427 4.5507 4.11123 4.34323C4.27976 4.13576 4.57039 4.07574 4.80685 4.19959H11.1362C11.3727 4.07574 11.6633 4.13576 11.8319 4.34323C12.0004 4.5507 12.0004 4.84848 11.8319 5.05596C11.6633 5.26343 11.3727 5.32344 11.1362 5.19959H11.1342Z" fill="white"/>
</svg>
