<svg width="24" height="25" viewBox="0 0 24 25" fill="none" xmlns="http://www.w3.org/2000/svg">
<path fill-rule="evenodd" clip-rule="evenodd" d="M2.99288 6.99854C2.4406 6.99854 1.99288 7.44625 1.99288 7.99854C1.99288 8.55082 2.4406 8.99854 2.99288 8.99854H4.97865C5.53093 8.99854 5.97865 8.55082 5.97865 7.99854C5.97865 7.44625 5.53093 6.99854 4.97865 6.99854H2.99288ZM0 12.9985C0 12.4463 0.447715 11.9985 1 11.9985H4.97865C5.53093 11.9985 5.97865 12.4463 5.97865 12.9985C5.97865 13.5508 5.53093 13.9985 4.97865 13.9985H0.999999C0.447715 13.9985 0 13.5508 0 12.9985ZM2.98932 17.9985C2.98932 17.4462 3.43704 16.9985 3.98932 16.9985H4.97865C5.53093 16.9985 5.97865 17.4462 5.97865 17.9985C5.97865 18.5508 5.53093 18.9985 4.97865 18.9985H3.98932C3.43704 18.9985 2.98932 18.5508 2.98932 17.9985Z" fill="#A8D0FF"/>
<path fill-rule="evenodd" clip-rule="evenodd" d="M9.97168 6.99854C8.86711 6.99854 7.97168 7.89397 7.97168 8.99854V16.9985C7.97168 18.1031 8.86711 18.9985 9.97168 18.9985H21.9147C23.0193 18.9985 23.9147 18.1031 23.9147 16.9985V8.99854C23.9147 7.89397 23.0193 6.99854 21.9147 6.99854H9.97168ZM21.8478 9.31418C21.6859 9.02243 21.3108 8.91327 21.0101 9.07037L15.9432 11.7171L10.8764 9.07037C10.5756 8.91327 10.2005 9.02243 10.0386 9.31418C9.87667 9.60594 9.98919 9.9698 10.2899 10.1269L15.65 12.9268C15.833 13.0224 16.0534 13.0224 16.2364 12.9268L21.5965 10.1269C21.8972 9.9698 22.0098 9.60594 21.8478 9.31418Z" fill="#A8D0FF"/>
</svg>
