<svg width="20" height="21" viewBox="0 0 20 21" fill="none" xmlns="http://www.w3.org/2000/svg">
<path fill-rule="evenodd" clip-rule="evenodd" d="M3.92808 4.69623C4.39586 4.2453 5.117 4.24362 5.64834 4.61757L5.78363 4.71278C6.26768 5.05344 6.89604 5.06529 7.44259 4.83807C7.98906 4.61088 8.4368 4.15447 8.53817 3.5714L8.56644 3.4088C8.67778 2.76839 9.18929 2.25974 9.8392 2.24803C9.89268 2.24707 9.94629 2.24658 10 2.24658C10.0537 2.24658 10.1073 2.24707 10.1608 2.24803C10.8107 2.25974 11.3222 2.76839 11.4336 3.4088L11.4618 3.57141C11.5632 4.15447 12.0109 4.61088 12.5574 4.83807C13.104 5.06529 13.7323 5.05344 14.2164 4.71278L14.3517 4.61757C14.883 4.24362 15.6041 4.2453 16.0719 4.69623C16.1495 4.77097 16.2256 4.84714 16.3004 4.92468C16.7513 5.39246 16.753 6.1136 16.379 6.64494L16.2838 6.78024C15.9431 7.26428 15.9313 7.89264 16.1585 8.43918C16.3857 8.98565 16.8421 9.4334 17.4252 9.53477L17.5878 9.56304C18.2282 9.67438 18.7368 10.1859 18.7486 10.8358C18.7495 10.8893 18.75 10.9429 18.75 10.9966C18.75 11.0503 18.7495 11.1039 18.7486 11.1574C18.7368 11.8073 18.2282 12.3188 17.5878 12.4302L17.4252 12.4584C16.8421 12.5598 16.3857 13.0075 16.1585 13.554C15.9313 14.1005 15.9431 14.7289 16.2838 15.2129L16.379 15.3482C16.753 15.8796 16.7513 16.6007 16.3004 17.0685C16.2256 17.146 16.1494 17.2222 16.0719 17.297C15.6041 17.7479 14.883 17.7496 14.3516 17.3756L14.2163 17.2804C13.7323 16.9397 13.104 16.9279 12.5574 17.1551C12.0109 17.3823 11.5632 17.8387 11.4618 18.4218L11.4336 18.5844C11.3222 19.2248 10.8107 19.7334 10.1608 19.7451C10.1073 19.7461 10.0537 19.7466 10 19.7466C9.94628 19.7466 9.89268 19.7461 9.83919 19.7451C9.18929 19.7334 8.67778 19.2248 8.56644 18.5844L8.53817 18.4218C8.4368 17.8387 7.98906 17.3823 7.44259 17.1551C6.89605 16.9279 6.26769 16.9397 5.78365 17.2804L5.64836 17.3756C5.11702 17.7496 4.39588 17.7479 3.9281 17.297C3.85056 17.2222 3.77439 17.146 3.69965 17.0685C3.24872 16.6007 3.24704 15.8796 3.62098 15.3482L3.7162 15.213C4.05686 14.7289 4.0687 14.1005 3.84148 13.554C3.6143 13.0075 3.15789 12.5598 2.57483 12.4584L2.41222 12.4302C1.77181 12.3188 1.26316 11.8073 1.25145 11.1574C1.25048 11.1039 1.25 11.0503 1.25 10.9966C1.25 10.9429 1.25048 10.8893 1.25145 10.8358C1.26316 10.1859 1.77181 9.67438 2.41222 9.56304L2.57482 9.53477C3.15788 9.4334 3.61429 8.98565 3.84148 8.43918C4.0687 7.89263 4.05685 7.26427 3.71619 6.78023L3.62097 6.64494C3.24703 6.1136 3.24871 5.39246 3.69963 4.92468C3.77438 4.84714 3.85054 4.77097 3.92808 4.69623ZM13.3333 10.9966C13.3333 12.8375 11.8409 14.3299 10 14.3299C8.15905 14.3299 6.66667 12.8375 6.66667 10.9966C6.66667 9.15564 8.15905 7.66325 10 7.66325C11.8409 7.66325 13.3333 9.15564 13.3333 10.9966Z" fill="#A8D0FF"/>
</svg>
