<svg width="17" height="15" viewBox="0 0 17 15" fill="none" xmlns="http://www.w3.org/2000/svg">
<path fill-rule="evenodd" clip-rule="evenodd" d="M8.81059 0.499566L10.1349 4.32157C10.2049 4.77795 10.5516 5.14182 11.0028 5.23257H14.9885C15.7349 5.23257 16.524 5.92557 15.9192 6.33257L12.4486 8.69557C12.0699 8.94132 11.9057 9.41375 12.05 9.84257L13.3753 13.6656C13.4591 13.9784 13.3361 14.3102 13.0689 14.4919C12.8017 14.6737 12.4491 14.6655 12.1905 14.4716L8.71991 12.1096C8.33041 11.8478 7.82201 11.8478 7.43251 12.1096L3.96191 14.4716C3.70317 14.665 3.35081 14.6729 3.08369 14.4913C2.81657 14.3098 2.69317 13.9785 2.77614 13.6656L4.10141 9.84257C4.24573 9.41375 4.08157 8.94132 3.70283 8.69557L0.235217 6.33257C-0.36763 5.92257 0.293011 5.23257 1.03835 5.23257H5.02411C5.50671 5.15371 5.89747 4.79646 6.02056 4.32157L7.34582 0.499566C7.46481 0.19783 7.75536 -0.000366211 8.0787 -0.000366211C8.40205 -0.000366211 8.6926 0.19783 8.81159 0.499566" fill="#A8D0FF"/>
</svg>
