<svg width="18" height="19" viewBox="0 0 18 19" fill="none" xmlns="http://www.w3.org/2000/svg">
<g clip-path="url(#clip0)">
<path d="M17.4875 16.698H0.448399C0.179359 16.698 0 16.878 0 17.148V18.048C0 18.318 0.179359 18.498 0.448399 18.498H17.4875C17.7566 18.498 17.9359 18.318 17.9359 18.048V17.148C17.9359 16.878 17.7566 16.698 17.4875 16.698Z" fill="#A8D0FF"/>
<path d="M16.5904 2.29805H9.86446V1.39805C9.86446 0.948047 9.41606 0.498047 8.96766 0.498047C8.51926 0.498047 8.07086 0.948047 8.07086 1.39805V2.29805H1.34488C1.07584 2.29805 0.896484 2.47805 0.896484 2.74805V14.448C0.896484 14.718 1.07584 14.898 1.34488 14.898H16.5904C16.8595 14.898 17.0388 14.718 17.0388 14.448V2.74805C17.0388 2.47805 16.8595 2.29805 16.5904 2.29805ZM14.7968 6.70805L10.3129 9.40805C9.95413 9.58805 9.50574 9.58805 9.2367 9.22805L7.35342 7.33805L4.39399 11.838C4.03527 12.468 3.31784 12.198 3.13848 12.108C2.69008 11.838 2.6004 11.298 2.86944 10.848L6.45663 5.44805C6.54631 5.17805 6.81535 4.99805 7.08438 4.99805C7.35342 4.99805 7.62246 5.08805 7.80182 5.26805L9.95413 7.42805L13.8104 5.08805C14.3484 4.90805 14.8865 4.99805 15.1556 5.44805C15.3349 5.89805 15.2452 6.43805 14.7968 6.70805Z" fill="#A8D0FF"/>
</g>
<defs>
<clipPath id="clip0">
<rect width="17.9359" height="18" fill="white" transform="translate(0 0.498047)"/>
</clipPath>
</defs>
</svg>
