<svg width="16" height="17" viewBox="0 0 16 17" fill="none" xmlns="http://www.w3.org/2000/svg">
<path d="M7.33301 3.83236H13.9997" stroke="#A8D0FF" stroke-width="1.5" stroke-linecap="round" stroke-linejoin="round"/>
<path d="M7.33301 8.49898H13.9997" stroke="#A8D0FF" stroke-width="1.5" stroke-linecap="round" stroke-linejoin="round"/>
<path d="M7.33301 13.1657H13.9997" stroke="#A8D0FF" stroke-width="1.5" stroke-linecap="round" stroke-linejoin="round"/>
<path d="M2.01367 12.8377L3.11567 13.8297L5.33367 11.8324" stroke="#A8D0FF" stroke-width="1.5" stroke-linecap="round" stroke-linejoin="round"/>
<path d="M4.27614 2.88955C4.79684 3.41025 4.79684 4.25447 4.27614 4.77517C3.75544 5.29587 2.91122 5.29587 2.39052 4.77517C1.86983 4.25447 1.86983 3.41025 2.39052 2.88955C2.91122 2.36885 3.75544 2.36885 4.27614 2.88955" stroke="#A8D0FF" stroke-width="1.5" stroke-linecap="round" stroke-linejoin="round"/>
<path d="M4.27614 7.55617C4.79684 8.07687 4.79684 8.92109 4.27614 9.44179C3.75544 9.96249 2.91122 9.96249 2.39052 9.44179C1.86983 8.92109 1.86983 8.07687 2.39052 7.55617C2.91122 7.03547 3.75544 7.03547 4.27614 7.55617" stroke="#A8D0FF" stroke-width="1.5" stroke-linecap="round" stroke-linejoin="round"/>
</svg>
