<svg width="22" height="22" viewBox="0 0 22 22" fill="none" xmlns="http://www.w3.org/2000/svg">
<g clip-path="url(#clip0)">
<path fill-rule="evenodd" clip-rule="evenodd" d="M9.78592 9.01752C9.2948 9.01752 8.89667 9.41565 8.89667 9.90677V17.91C8.89667 18.4011 9.2948 18.7993 9.78592 18.7993H17.7892C18.2803 18.7993 18.6784 18.4011 18.6784 17.91V9.90677C18.6784 9.41565 18.2803 9.01752 17.7892 9.01752H9.78592ZM7.11816 9.90677C7.11816 8.43341 8.31256 7.23901 9.78592 7.23901H17.7892C19.2625 7.23901 20.4569 8.43341 20.4569 9.90677V17.91C20.4569 19.3834 19.2625 20.5778 17.7892 20.5778H9.78592C8.31256 20.5778 7.11816 19.3834 7.11816 17.91V9.90677Z" fill="white"/>
<path fill-rule="evenodd" clip-rule="evenodd" d="M3.56131 2.79266C3.32546 2.79266 3.09928 2.88635 2.93251 3.05312C2.76575 3.21988 2.67206 3.44607 2.67206 3.68191V11.6852C2.67206 11.921 2.76575 12.1472 2.93251 12.314C3.09928 12.4807 3.32546 12.5744 3.56131 12.5744H4.45056C4.94168 12.5744 5.33981 12.9726 5.33981 13.4637C5.33981 13.9548 4.94168 14.3529 4.45056 14.3529H3.56131C2.85378 14.3529 2.17522 14.0719 1.67492 13.5716C1.17462 13.0713 0.893555 12.3927 0.893555 11.6852V3.68191C0.893555 2.97438 1.17462 2.29583 1.67492 1.79553C2.17522 1.29523 2.85378 1.01416 3.56131 1.01416H11.5646C12.2721 1.01416 12.9507 1.29523 13.451 1.79553C13.9513 2.29583 14.2323 2.97438 14.2323 3.68191V4.57116C14.2323 5.06228 13.8342 5.46041 13.3431 5.46041C12.8519 5.46041 12.4538 5.06228 12.4538 4.57116V3.68191C12.4538 3.44607 12.3601 3.21988 12.1934 3.05312C12.0266 2.88635 11.8004 2.79266 11.5646 2.79266H3.56131Z" fill="white"/>
</g>
<defs>
<clipPath id="clip0">
<rect width="21.342" height="21.342" fill="white" transform="translate(0.00390625 0.125)"/>
</clipPath>
</defs>
</svg>
