<svg width="17" height="16" viewBox="0 0 17 16" fill="none" xmlns="http://www.w3.org/2000/svg">
<g clip-path="url(#clip0)">
<path fill-rule="evenodd" clip-rule="evenodd" d="M3.39844 5.33346C3.03025 5.33346 2.73177 5.63193 2.73177 6.00012V12.6668C2.73177 13.035 3.03025 13.3335 3.39844 13.3335H14.0651C14.4333 13.3335 14.7318 13.035 14.7318 12.6668V6.00012C14.7318 5.63193 14.4333 5.33346 14.0651 5.33346H3.39844ZM1.39844 6.00012C1.39844 4.89555 2.29387 4.00012 3.39844 4.00012H14.0651C15.1697 4.00012 16.0651 4.89555 16.0651 6.00012V12.6668C16.0651 13.7714 15.1697 14.6668 14.0651 14.6668H3.39844C2.29387 14.6668 1.39844 13.7714 1.39844 12.6668V6.00012Z" fill="#EBA236"/>
<path fill-rule="evenodd" clip-rule="evenodd" d="M5.98422 1.91928C6.3593 1.54421 6.868 1.3335 7.39844 1.3335H10.0651C10.5955 1.3335 11.1042 1.54421 11.4793 1.91928C11.8544 2.29436 12.0651 2.80306 12.0651 3.3335V14.0002C12.0651 14.3684 11.7666 14.6668 11.3984 14.6668C11.0302 14.6668 10.7318 14.3684 10.7318 14.0002V3.3335C10.7318 3.15669 10.6615 2.98712 10.5365 2.86209C10.4115 2.73707 10.2419 2.66683 10.0651 2.66683H7.39844C7.22163 2.66683 7.05206 2.73707 6.92703 2.86209C6.80201 2.98712 6.73177 3.15669 6.73177 3.3335V14.0002C6.73177 14.3684 6.43329 14.6668 6.0651 14.6668C5.69691 14.6668 5.39844 14.3684 5.39844 14.0002V3.3335C5.39844 2.80306 5.60915 2.29436 5.98422 1.91928Z" fill="#EBA236"/>
</g>
<defs>
<clipPath id="clip0">
<rect width="16" height="16" fill="white" transform="translate(0.731445 0.00012207)"/>
</clipPath>
</defs>
</svg>
