<svg width="16" height="16" viewBox="0 0 16 16" fill="none" xmlns="http://www.w3.org/2000/svg">
<path fill-rule="evenodd" clip-rule="evenodd" d="M8 0.00012207C3.58172 0.00012207 0 3.58184 0 8.00012C0 12.4184 3.58172 16.0001 8 16.0001C12.4183 16.0001 16 12.4184 16 8.00012C16 3.58184 12.4183 0.00012207 8 0.00012207ZM9.739 2.73212L9.874 2.24412C9.93465 2.02032 10.0907 1.83453 10.3006 1.73611C10.5106 1.63768 10.7532 1.63659 10.964 1.73312C12.4178 2.4221 13.5886 3.59256 14.278 5.04612C14.3752 5.26084 14.3712 5.50775 14.2673 5.71928C14.1634 5.93081 13.9703 6.0848 13.741 6.13912L13.241 6.25812C12.9055 6.34338 12.5558 6.1847 12.399 5.87612C11.9148 4.88298 11.1112 4.08114 10.117 3.59912C9.79741 3.4399 9.63682 3.07541 9.735 2.73212H9.739ZM1.725 5.03212C2.41384 3.57826 3.58434 2.4074 5.038 1.71812C5.25269 1.62059 5.49977 1.62432 5.71141 1.7283C5.92305 1.83229 6.07701 2.02558 6.131 2.25512L6.251 2.75512C6.33586 3.09055 6.1773 3.44006 5.869 3.59712C4.87561 4.08049 4.07363 4.88388 3.592 5.87812C3.4324 6.19786 3.06757 6.35842 2.724 6.26012L2.236 6.12612C2.01238 6.06524 1.82684 5.90912 1.72862 5.69921C1.63041 5.48929 1.62945 5.24681 1.726 5.03612L1.725 5.03212ZM6.252 13.2721L6.118 13.7601C6.05735 13.9839 5.90133 14.1697 5.69138 14.2681C5.48143 14.3666 5.23882 14.3677 5.028 14.2711C3.57442 13.5819 2.40369 12.4115 1.714 10.9581C1.61647 10.7434 1.6202 10.4963 1.72418 10.2847C1.82816 10.0731 2.02146 9.91912 2.251 9.86512L2.751 9.74512C3.08643 9.66026 3.43594 9.81883 3.593 10.1271C4.07637 11.1209 4.8802 11.9229 5.875 12.4041C6.19466 12.5638 6.35488 12.9288 6.256 13.2721H6.252ZM4.179 8.00812C4.179 5.89121 5.89509 4.17512 8.012 4.17512C10.1289 4.17512 11.845 5.89121 11.845 8.00812C11.845 10.125 10.1289 11.8411 8.012 11.8411C5.89509 11.8411 4.179 10.125 4.179 8.00812ZM14.266 10.9661C13.5773 12.4198 12.4072 13.5906 10.954 14.2801C10.7393 14.378 10.4921 14.3745 10.2803 14.2705C10.0686 14.1664 9.91467 13.9729 9.861 13.7431L9.742 13.2431C9.65635 12.9076 9.81513 12.5576 10.124 12.4011C11.1173 11.9171 11.9192 11.1135 12.401 10.1191C12.5606 9.79946 12.9256 9.63924 13.269 9.73812L13.756 9.87212C13.9797 9.93252 14.1655 10.0884 14.264 10.2981C14.3624 10.5079 14.3635 10.7504 14.267 10.9611L14.266 10.9661Z" fill="#FFC063"/>
</svg>
