<svg width="107" height="18" viewBox="0 0 107 18" fill="none" xmlns="http://www.w3.org/2000/svg">
<path d="M1.06709 15.4716C0.931868 15.288 0.864258 15.0585 0.864258 14.7831C0.864258 14.3854 1.05958 14.0488 1.45021 13.7734C1.66055 13.6357 1.8784 13.5669 2.10377 13.5669C2.41928 13.5669 2.71977 13.7122 3.00523 14.0029C3.45596 14.4771 3.92172 14.829 4.4025 15.0585C4.8983 15.288 5.49177 15.4027 6.18289 15.4027C7.35479 15.3569 7.94074 14.9055 7.94074 14.0488C7.94074 13.6051 7.73791 13.2685 7.33225 13.039C6.94162 12.8095 6.32562 12.5801 5.48425 12.3506C4.61284 12.1058 3.89918 11.861 3.34328 11.6162C2.8024 11.3714 2.32913 11.0042 1.92348 10.5147C1.53284 10.0098 1.33753 9.33664 1.33753 8.49518C1.33753 7.76083 1.54035 7.12591 1.94601 6.59044C2.3667 6.03967 2.90757 5.61895 3.56865 5.32826C4.24474 5.02228 4.9584 4.86929 5.70962 4.86929C6.47586 4.86929 7.2421 5.01463 8.00835 5.30531C8.77459 5.596 9.37557 6.02437 9.81127 6.59044C10.0066 6.83523 10.1042 7.11061 10.1042 7.4166C10.1042 7.76848 9.96152 8.05916 9.67605 8.28865C9.46571 8.45694 9.22532 8.54108 8.95488 8.54108C8.62435 8.54108 8.35391 8.43399 8.14357 8.2198C7.87313 7.88322 7.52006 7.61548 7.08435 7.4166C6.66367 7.21771 6.18289 7.11826 5.64201 7.11826C4.50016 7.11826 3.92923 7.53899 3.92923 8.38044C3.92923 8.71702 4.0344 8.99241 4.24474 9.20659C4.45508 9.40548 4.71801 9.56612 5.03352 9.68852C5.36406 9.79561 5.8223 9.9333 6.40825 10.1016C7.21957 10.3311 7.89567 10.5682 8.43654 10.813C8.97742 11.0578 9.43566 11.4326 9.81127 11.9375C10.1869 12.4424 10.3747 13.1079 10.3747 13.934C10.3747 14.6837 10.1568 15.3416 9.72113 15.9076C9.28542 16.4584 8.72201 16.8791 8.03089 17.1698C7.35479 17.4605 6.65615 17.6058 5.93498 17.6058C4.94338 17.6058 4.01938 17.4375 3.16299 17.101C2.3066 16.7644 1.60796 16.2213 1.06709 15.4716Z" fill="white"/>
<path d="M23.023 4.86929C23.4136 4.86929 23.7366 4.99933 23.9921 5.25942C24.2475 5.5195 24.3752 5.85608 24.3752 6.26916V15.9765C24.3752 16.3742 24.2475 16.7108 23.9921 16.9862C23.7366 17.2463 23.4136 17.3763 23.023 17.3763C22.6323 17.3763 22.3093 17.2463 22.0539 16.9862C21.8135 16.7261 21.6858 16.3972 21.6708 15.9994C21.2952 16.4431 20.7843 16.8256 20.1383 17.1469C19.5073 17.4528 18.8387 17.6058 18.1325 17.6058C17.0959 17.6058 16.1568 17.3381 15.3155 16.8026C14.4741 16.2519 13.8055 15.4945 13.3097 14.5307C12.8289 13.5669 12.5886 12.473 12.5886 11.249C12.5886 10.0251 12.8289 8.93121 13.3097 7.96736C13.7905 6.98822 14.4441 6.23091 15.2704 5.69544C16.1118 5.14467 17.0358 4.86929 18.0424 4.86929C18.7636 4.86929 19.4397 5.00698 20.0707 5.28236C20.7017 5.54245 21.2351 5.87903 21.6708 6.29211V6.26916C21.6708 5.87138 21.7985 5.54245 22.0539 5.28236C22.3093 5.00698 22.6323 4.86929 23.023 4.86929ZM18.4706 15.0815C19.4472 15.0815 20.2435 14.7219 20.8595 14.0029C21.4755 13.2685 21.7835 12.3506 21.7835 11.249C21.7835 10.1475 21.4755 9.22954 20.8595 8.49518C20.2435 7.76083 19.4472 7.39365 18.4706 7.39365C17.509 7.39365 16.7203 7.76083 16.1043 8.49518C15.4883 9.22954 15.1803 10.1475 15.1803 11.249C15.1803 12.3506 15.4807 13.2685 16.0817 14.0029C16.6977 14.7219 17.494 15.0815 18.4706 15.0815Z" fill="white"/>
<path d="M30.6865 15.9765C30.6865 16.3742 30.5512 16.7108 30.2808 16.9862C30.0254 17.2463 29.7024 17.3763 29.3117 17.3763C28.9361 17.3763 28.6206 17.2463 28.3652 16.9862C28.1098 16.7108 27.9821 16.3742 27.9821 15.9765V1.79416C27.9821 1.39638 28.1098 1.06745 28.3652 0.807363C28.6356 0.531979 28.9662 0.394287 29.3568 0.394287C29.7324 0.394287 30.0479 0.531979 30.3033 0.807363C30.5588 1.06745 30.6865 1.39638 30.6865 1.79416V15.9765Z" fill="white"/>
<path d="M44.8792 10.9507C44.8642 11.3179 44.7215 11.6162 44.451 11.8457C44.1806 12.0752 43.8651 12.1899 43.5045 12.1899H36.0674C36.2477 13.0926 36.6609 13.804 37.3069 14.3242C37.953 14.829 38.6817 15.0815 39.493 15.0815C40.109 15.0815 40.5898 15.0279 40.9353 14.9208C41.2809 14.7984 41.5513 14.676 41.7466 14.5536C41.957 14.416 42.0997 14.3242 42.1748 14.2783C42.4453 14.1406 42.7007 14.0717 42.9411 14.0717C43.2566 14.0717 43.527 14.1865 43.7524 14.416C43.9778 14.6454 44.0904 14.9132 44.0904 15.2192C44.0904 15.6322 43.8801 16.0071 43.4594 16.3436C43.0387 16.6955 42.4753 16.9939 41.7692 17.2386C41.063 17.4834 40.3494 17.6058 39.6282 17.6058C38.3661 17.6058 37.2619 17.3381 36.3153 16.8026C35.3838 16.2672 34.6626 15.5328 34.1518 14.5995C33.641 13.651 33.3856 12.5877 33.3856 11.4097C33.3856 10.0939 33.656 8.93886 34.1969 7.94441C34.7378 6.94997 35.4514 6.19266 36.3379 5.67249C37.2243 5.13702 38.1708 4.86929 39.1775 4.86929C40.1691 4.86929 41.1006 5.14467 41.972 5.69544C42.8584 6.24621 43.5646 6.98822 44.0904 7.92147C44.6163 8.85472 44.8792 9.86446 44.8792 10.9507ZM39.1775 7.39365C37.4346 7.39365 36.4055 8.22745 36.09 9.89506H41.9945V9.73442C41.9344 9.09185 41.6264 8.54108 41.0705 8.08211C40.5146 7.62313 39.8836 7.39365 39.1775 7.39365Z" fill="white"/>
<path d="M53.828 4.86929C54.8647 4.86929 55.8037 5.14467 56.6451 5.69544C57.4864 6.23091 58.1475 6.98057 58.6283 7.94441C59.1241 8.90826 59.372 10.0021 59.372 11.2261C59.372 12.45 59.1316 13.5516 58.6508 14.5307C58.17 15.4945 57.509 16.2519 56.6676 16.8026C55.8413 17.3381 54.9248 17.6058 53.9181 17.6058C53.197 17.6058 52.5134 17.4605 51.8673 17.1698C51.2363 16.8638 50.7104 16.4966 50.2898 16.0683V16.206C50.2898 16.6037 50.162 16.9403 49.9066 17.2157C49.6512 17.4758 49.3282 17.6058 48.9376 17.6058C48.5469 17.6058 48.2239 17.4758 47.9685 17.2157C47.7131 16.9556 47.5854 16.619 47.5854 16.206V1.79416C47.5854 1.39638 47.7131 1.06745 47.9685 0.807363C48.2239 0.531979 48.5469 0.394287 48.9376 0.394287C49.3282 0.394287 49.6512 0.531979 49.9066 0.807363C50.162 1.06745 50.2898 1.39638 50.2898 1.79416V6.59044C50.6503 6.13147 51.1537 5.73369 51.7997 5.39711C52.4457 5.04523 53.1218 4.86929 53.828 4.86929ZM53.4899 15.0815C54.4515 15.0815 55.2403 14.7143 55.8563 13.9799C56.4723 13.2456 56.7803 12.3276 56.7803 11.2261C56.7803 10.1245 56.4723 9.21424 55.8563 8.49518C55.2553 7.76083 54.4665 7.39365 53.4899 7.39365C52.5134 7.39365 51.7171 7.76083 51.1011 8.49518C50.4851 9.21424 50.1771 10.1245 50.1771 11.2261C50.1771 12.3276 50.4851 13.2456 51.1011 13.9799C51.7171 14.7143 52.5134 15.0815 53.4899 15.0815Z" fill="white"/>
<path d="M73.6612 11.249C73.6612 12.473 73.3908 13.5745 72.8499 14.5536C72.309 15.5175 71.5653 16.2672 70.6188 16.8026C69.6873 17.3381 68.6581 17.6058 67.5313 17.6058C66.3894 17.6058 65.3527 17.3381 64.4212 16.8026C63.4897 16.2672 62.7535 15.5175 62.2127 14.5536C61.6718 13.5745 61.4013 12.473 61.4013 11.249C61.4013 10.0251 61.6718 8.93121 62.2127 7.96736C62.7535 6.98822 63.4897 6.23091 64.4212 5.69544C65.3527 5.14467 66.3894 4.86929 67.5313 4.86929C68.6581 4.86929 69.6873 5.14467 70.6188 5.69544C71.5653 6.23091 72.309 6.98822 72.8499 7.96736C73.3908 8.93121 73.6612 10.0251 73.6612 11.249ZM70.9568 11.249C70.9568 10.4994 70.7991 9.83386 70.4836 9.25249C70.1831 8.65583 69.7699 8.19685 69.2441 7.87557C68.7332 7.55429 68.1623 7.39365 67.5313 7.39365C66.9003 7.39365 66.3218 7.55429 65.796 7.87557C65.2851 8.19685 64.872 8.65583 64.5565 9.25249C64.256 9.83386 64.1057 10.4994 64.1057 11.249C64.1057 11.9987 64.256 12.6642 64.5565 13.2456C64.872 13.8269 65.2851 14.2783 65.796 14.5995C66.3218 14.9208 66.9003 15.0815 67.5313 15.0815C68.1623 15.0815 68.7332 14.9208 69.2441 14.5995C69.7699 14.2783 70.1831 13.8269 70.4836 13.2456C70.7991 12.6642 70.9568 11.9987 70.9568 11.249Z" fill="white"/>
<path d="M82.1859 14.7831C82.3962 14.7831 82.584 14.8902 82.7493 15.1044C82.9296 15.3033 83.0197 15.571 83.0197 15.9076C83.0197 16.3207 82.7943 16.6726 82.3436 16.9633C81.9079 17.2386 81.4121 17.3763 80.8562 17.3763C79.9247 17.3763 79.1359 17.1775 78.4899 16.7797C77.8588 16.3666 77.5433 15.5022 77.5433 14.1865V7.85262H76.5066C76.1461 7.85262 75.8456 7.73023 75.6052 7.48544C75.3648 7.24066 75.2446 6.93467 75.2446 6.56749C75.2446 6.21561 75.3648 5.92493 75.6052 5.69544C75.8456 5.45065 76.1461 5.32826 76.5066 5.32826H77.5433V3.85954C77.5433 3.46177 77.671 3.13283 77.9264 2.87275C78.1969 2.59736 78.5274 2.45967 78.9181 2.45967C79.2937 2.45967 79.6092 2.59736 79.8646 2.87275C80.12 3.13283 80.2477 3.46177 80.2477 3.85954V5.32826H81.8478C82.2084 5.32826 82.5089 5.45065 82.7493 5.69544C82.9897 5.94023 83.1099 6.24621 83.1099 6.61339C83.1099 6.96527 82.9897 7.2636 82.7493 7.50839C82.5089 7.73788 82.2084 7.85262 81.8478 7.85262H80.2477V14.0717C80.2477 14.393 80.3303 14.6301 80.4956 14.7831C80.6609 14.9208 80.8863 14.9897 81.1717 14.9897C81.2919 14.9897 81.4572 14.9591 81.6675 14.8979C81.8478 14.8214 82.0206 14.7831 82.1859 14.7831Z" fill="white"/>
<ellipse rx="2.25233" ry="2.29353" transform="matrix(1 0 0 -1 91.7767 15.3123)" fill="#EBA236"/>
<ellipse rx="2.25233" ry="2.29353" transform="matrix(1 0 0 -1 98.4183 15.3123)" fill="#EBA236"/>
<ellipse rx="2.25233" ry="2.29353" transform="matrix(1 0 0 -1 104.713 15.3123)" fill="#EBA236"/>
</svg>
